<mxfile host="app.diagrams.net" modified="2024-03-28T08:59:14.804Z" agent="Mozilla/5.0 (Windows NT 10.0; Win64; x64) AppleWebKit/537.36 (KHTML, like Gecko) Chrome/122.0.0.0 Safari/537.36 Edg/122.0.0.0" etag="vOB2Awzuoh63zLWv-xto" version="24.2.0" type="github" pages="3">
  <diagram name="Page-1" id="90a13364-a465-7bf4-72fc-28e22215d7a0">
    <mxGraphModel dx="1426" dy="793" grid="1" gridSize="10" guides="1" tooltips="1" connect="1" arrows="1" fold="1" page="1" pageScale="1.5" pageWidth="1169" pageHeight="826" background="none" math="0" shadow="0">
      <root>
        <mxCell id="0" style=";html=1;" />
        <mxCell id="1" style=";html=1;" parent="0" />
        <mxCell id="3a17f1ce550125da-1" value="Software Control" style="whiteSpace=wrap;html=1;shadow=1;fontSize=20;fillColor=#f5f5f5;strokeColor=#666666;strokeWidth=2;dashed=1;" parent="1" vertex="1">
          <mxGeometry x="797" y="344" width="150" height="60" as="geometry" />
        </mxCell>
        <mxCell id="3a17f1ce550125da-13" style="edgeStyle=elbowEdgeStyle;rounded=0;html=1;startArrow=none;startFill=0;jettySize=auto;orthogonalLoop=1;fontSize=18;elbow=vertical;" parent="1" source="3a17f1ce550125da-2" target="3a17f1ce550125da-4" edge="1">
          <mxGeometry relative="1" as="geometry" />
        </mxCell>
        <mxCell id="3a17f1ce550125da-14" style="edgeStyle=elbowEdgeStyle;rounded=0;html=1;startArrow=none;startFill=0;jettySize=auto;orthogonalLoop=1;fontSize=18;elbow=vertical;" parent="1" source="3a17f1ce550125da-2" target="3a17f1ce550125da-5" edge="1">
          <mxGeometry relative="1" as="geometry" />
        </mxCell>
        <mxCell id="3a17f1ce550125da-15" style="edgeStyle=elbowEdgeStyle;rounded=0;html=1;startArrow=none;startFill=0;jettySize=auto;orthogonalLoop=1;fontSize=18;elbow=vertical;" parent="1" source="3a17f1ce550125da-2" target="3a17f1ce550125da-6" edge="1">
          <mxGeometry relative="1" as="geometry" />
        </mxCell>
        <mxCell id="3a17f1ce550125da-16" style="edgeStyle=elbowEdgeStyle;rounded=0;html=1;startArrow=none;startFill=0;jettySize=auto;orthogonalLoop=1;fontSize=18;elbow=vertical;" parent="1" source="3a17f1ce550125da-2" target="3a17f1ce550125da-7" edge="1">
          <mxGeometry relative="1" as="geometry" />
        </mxCell>
        <mxCell id="3a17f1ce550125da-17" style="edgeStyle=elbowEdgeStyle;rounded=0;html=1;startArrow=none;startFill=0;jettySize=auto;orthogonalLoop=1;fontSize=18;" parent="1" source="3a17f1ce550125da-10" target="3a17f1ce550125da-2" edge="1">
          <mxGeometry relative="1" as="geometry">
            <Array as="points">
              <mxPoint x="907" y="754" />
            </Array>
          </mxGeometry>
        </mxCell>
        <mxCell id="3a17f1ce550125da-2" value="Custom switch Matrix&lt;div&gt;&lt;br&gt;&lt;/div&gt;&lt;div&gt;(switches, couplers, mixer, amps, attenu, splitters)&lt;/div&gt;" style="whiteSpace=wrap;html=1;shadow=1;fontSize=18;fillColor=#f5f5f5;strokeColor=#666666;" parent="1" vertex="1">
          <mxGeometry x="787" y="454" width="170" height="280" as="geometry" />
        </mxCell>
        <mxCell id="3a17f1ce550125da-4" value="Spectrum Analyzer" style="whiteSpace=wrap;html=1;shadow=1;fontSize=18;fillColor=#f5f5f5;strokeColor=#666666;" parent="1" vertex="1">
          <mxGeometry x="1037" y="444" width="120" height="60" as="geometry" />
        </mxCell>
        <mxCell id="3a17f1ce550125da-5" value="Network Analyzer" style="whiteSpace=wrap;html=1;shadow=1;fontSize=18;fillColor=#f5f5f5;strokeColor=#666666;" parent="1" vertex="1">
          <mxGeometry x="1037" y="524" width="120" height="60" as="geometry" />
        </mxCell>
        <mxCell id="3a17f1ce550125da-6" value="Power Meter" style="whiteSpace=wrap;html=1;shadow=1;fontSize=18;fillColor=#f5f5f5;strokeColor=#666666;" parent="1" vertex="1">
          <mxGeometry x="1037" y="604" width="120" height="60" as="geometry" />
        </mxCell>
        <mxCell id="3a17f1ce550125da-7" value="Freq. Count" style="whiteSpace=wrap;html=1;shadow=1;fontSize=18;fillColor=#f5f5f5;strokeColor=#666666;" parent="1" vertex="1">
          <mxGeometry x="1037" y="684" width="120" height="60" as="geometry" />
        </mxCell>
        <mxCell id="3a17f1ce550125da-20" style="edgeStyle=elbowEdgeStyle;rounded=0;html=1;startArrow=none;startFill=0;jettySize=auto;orthogonalLoop=1;fontSize=18;elbow=vertical;" parent="1" source="3a17f1ce550125da-8" target="3a17f1ce550125da-2" edge="1">
          <mxGeometry relative="1" as="geometry">
            <Array as="points">
              <mxPoint x="757" y="514" />
            </Array>
          </mxGeometry>
        </mxCell>
        <mxCell id="3a17f1ce550125da-8" value="Vector Signal Generator" style="whiteSpace=wrap;html=1;shadow=1;fontSize=18;fillColor=#f5f5f5;strokeColor=#666666;" parent="1" vertex="1">
          <mxGeometry x="597" y="444" width="120" height="150" as="geometry" />
        </mxCell>
        <mxCell id="3a17f1ce550125da-21" style="edgeStyle=elbowEdgeStyle;rounded=0;html=1;startArrow=none;startFill=0;jettySize=auto;orthogonalLoop=1;fontSize=18;elbow=vertical;" parent="1" source="3a17f1ce550125da-9" target="3a17f1ce550125da-2" edge="1">
          <mxGeometry relative="1" as="geometry" />
        </mxCell>
        <mxCell id="3a17f1ce550125da-9" value="ARB / Mod Source" style="whiteSpace=wrap;html=1;shadow=1;fontSize=18;fillColor=#f5f5f5;strokeColor=#666666;" parent="1" vertex="1">
          <mxGeometry x="597" y="634" width="120" height="60" as="geometry" />
        </mxCell>
        <mxCell id="3a17f1ce550125da-10" value="DUT" style="whiteSpace=wrap;html=1;shadow=1;fontSize=18;fillColor=#f5f5f5;strokeColor=#666666;" parent="1" vertex="1">
          <mxGeometry x="799.5" y="774" width="145" height="120" as="geometry" />
        </mxCell>
        <mxCell id="3a17f1ce550125da-18" style="edgeStyle=elbowEdgeStyle;rounded=0;html=1;startArrow=none;startFill=0;jettySize=auto;orthogonalLoop=1;fontSize=18;elbow=vertical;" parent="1" source="3a17f1ce550125da-11" target="3a17f1ce550125da-10" edge="1">
          <mxGeometry relative="1" as="geometry" />
        </mxCell>
        <mxCell id="3a17f1ce550125da-11" value="DC Power Supplies" style="whiteSpace=wrap;html=1;shadow=1;fontSize=18;fillColor=#f5f5f5;strokeColor=#666666;" parent="1" vertex="1">
          <mxGeometry x="597" y="804" width="120" height="60" as="geometry" />
        </mxCell>
        <mxCell id="3a17f1ce550125da-22" style="edgeStyle=elbowEdgeStyle;rounded=0;html=1;startArrow=none;startFill=0;jettySize=auto;orthogonalLoop=1;fontSize=18;" parent="1" source="3a17f1ce550125da-10" target="3a17f1ce550125da-2" edge="1">
          <mxGeometry relative="1" as="geometry">
            <mxPoint x="937" y="784" as="sourcePoint" />
            <mxPoint x="937" y="744" as="targetPoint" />
            <Array as="points">
              <mxPoint x="927" y="754" />
              <mxPoint x="907" y="754" />
            </Array>
          </mxGeometry>
        </mxCell>
        <mxCell id="3a17f1ce550125da-23" style="edgeStyle=elbowEdgeStyle;rounded=0;html=1;startArrow=none;startFill=0;jettySize=auto;orthogonalLoop=1;fontSize=18;" parent="1" edge="1">
          <mxGeometry relative="1" as="geometry">
            <mxPoint x="887" y="774" as="sourcePoint" />
            <mxPoint x="887" y="734" as="targetPoint" />
            <Array as="points">
              <mxPoint x="887" y="754" />
              <mxPoint x="887" y="754" />
            </Array>
          </mxGeometry>
        </mxCell>
        <mxCell id="3a17f1ce550125da-24" style="edgeStyle=elbowEdgeStyle;rounded=0;html=1;startArrow=none;startFill=0;jettySize=auto;orthogonalLoop=1;fontSize=18;" parent="1" edge="1">
          <mxGeometry relative="1" as="geometry">
            <mxPoint x="857" y="734" as="sourcePoint" />
            <mxPoint x="857" y="774" as="targetPoint" />
            <Array as="points">
              <mxPoint x="857" y="754" />
              <mxPoint x="887" y="764" />
            </Array>
          </mxGeometry>
        </mxCell>
        <mxCell id="3a17f1ce550125da-25" style="edgeStyle=elbowEdgeStyle;rounded=0;html=1;startArrow=none;startFill=0;jettySize=auto;orthogonalLoop=1;fontSize=18;" parent="1" edge="1">
          <mxGeometry relative="1" as="geometry">
            <mxPoint x="837" y="734" as="sourcePoint" />
            <mxPoint x="837" y="774" as="targetPoint" />
            <Array as="points">
              <mxPoint x="837" y="754" />
              <mxPoint x="867" y="764" />
            </Array>
          </mxGeometry>
        </mxCell>
        <mxCell id="3a17f1ce550125da-26" style="edgeStyle=elbowEdgeStyle;rounded=0;html=1;startArrow=none;startFill=0;jettySize=auto;orthogonalLoop=1;fontSize=18;" parent="1" edge="1">
          <mxGeometry relative="1" as="geometry">
            <mxPoint x="817" y="734" as="sourcePoint" />
            <mxPoint x="817" y="774" as="targetPoint" />
            <Array as="points">
              <mxPoint x="817" y="754" />
              <mxPoint x="847" y="764" />
            </Array>
          </mxGeometry>
        </mxCell>
      </root>
    </mxGraphModel>
  </diagram>
  <diagram id="WmVLg-b2dVvChHMaD-ST" name="fpga_core">
    <mxGraphModel dx="2253" dy="793" grid="1" gridSize="10" guides="1" tooltips="1" connect="1" arrows="1" fold="1" page="1" pageScale="1" pageWidth="827" pageHeight="1169" math="0" shadow="0">
      <root>
        <mxCell id="0" />
        <mxCell id="1" parent="0" />
        <mxCell id="_GHJm9TERQXhFBqD-WtT-1" value="eth_mac_10g_fifo_inst" style="rounded=0;whiteSpace=wrap;html=1;" parent="1" vertex="1">
          <mxGeometry x="150" y="220" width="160" height="300" as="geometry" />
        </mxCell>
        <mxCell id="er2YFa4bt9Bg1uKM2I_E-1" value="" style="endArrow=classic;html=1;rounded=0;exitX=-0.012;exitY=0.203;exitDx=0;exitDy=0;exitPerimeter=0;" parent="1" edge="1">
          <mxGeometry width="50" height="50" relative="1" as="geometry">
            <mxPoint x="149.99999999999991" y="360.9000000000001" as="sourcePoint" />
            <mxPoint x="-48.08" y="359" as="targetPoint" />
          </mxGeometry>
        </mxCell>
        <mxCell id="E0nplpM9ZqIQ3wavxiov-1" value="sfp0_txc" style="text;strokeColor=none;align=center;fillColor=none;html=1;verticalAlign=middle;whiteSpace=wrap;rounded=0;" parent="1" vertex="1">
          <mxGeometry x="1.92" y="330" width="60" height="30" as="geometry" />
        </mxCell>
        <mxCell id="E0nplpM9ZqIQ3wavxiov-2" value="" style="endArrow=classic;html=1;rounded=0;" parent="1" edge="1">
          <mxGeometry width="50" height="50" relative="1" as="geometry">
            <mxPoint x="147.92" y="329" as="sourcePoint" />
            <mxPoint x="-48.08" y="329" as="targetPoint" />
          </mxGeometry>
        </mxCell>
        <mxCell id="E0nplpM9ZqIQ3wavxiov-3" value="sfp0_txd" style="text;strokeColor=none;align=center;fillColor=none;html=1;verticalAlign=middle;whiteSpace=wrap;rounded=0;" parent="1" vertex="1">
          <mxGeometry x="1.92" y="300" width="60" height="30" as="geometry" />
        </mxCell>
        <mxCell id="E0nplpM9ZqIQ3wavxiov-4" value="" style="endArrow=classic;html=1;rounded=0;entryX=-0.025;entryY=0.295;entryDx=0;entryDy=0;entryPerimeter=0;" parent="1" edge="1">
          <mxGeometry width="50" height="50" relative="1" as="geometry">
            <mxPoint x="-38.08" y="419" as="sourcePoint" />
            <mxPoint x="147.92" y="419" as="targetPoint" />
          </mxGeometry>
        </mxCell>
        <mxCell id="E0nplpM9ZqIQ3wavxiov-5" value="sfp0_rxc" style="text;strokeColor=none;align=center;fillColor=none;html=1;verticalAlign=middle;whiteSpace=wrap;rounded=0;" parent="1" vertex="1">
          <mxGeometry x="1.92" y="390" width="60" height="30" as="geometry" />
        </mxCell>
        <mxCell id="E0nplpM9ZqIQ3wavxiov-6" value="" style="endArrow=classic;html=1;rounded=0;entryX=-0.025;entryY=0.295;entryDx=0;entryDy=0;entryPerimeter=0;" parent="1" edge="1">
          <mxGeometry width="50" height="50" relative="1" as="geometry">
            <mxPoint x="-38.08" y="389" as="sourcePoint" />
            <mxPoint x="147.92" y="389" as="targetPoint" />
          </mxGeometry>
        </mxCell>
        <mxCell id="E0nplpM9ZqIQ3wavxiov-7" value="sfp0_rxd" style="text;strokeColor=none;align=center;fillColor=none;html=1;verticalAlign=middle;whiteSpace=wrap;rounded=0;" parent="1" vertex="1">
          <mxGeometry x="1.92" y="360" width="60" height="30" as="geometry" />
        </mxCell>
        <mxCell id="E0nplpM9ZqIQ3wavxiov-8" value="eth_axis_tx_inst" style="rounded=0;whiteSpace=wrap;html=1;" parent="1" vertex="1">
          <mxGeometry x="500" y="220" width="160" height="120" as="geometry" />
        </mxCell>
        <mxCell id="E0nplpM9ZqIQ3wavxiov-9" value="" style="endArrow=classic;html=1;rounded=0;entryX=-0.025;entryY=0.295;entryDx=0;entryDy=0;entryPerimeter=0;" parent="1" edge="1">
          <mxGeometry width="50" height="50" relative="1" as="geometry">
            <mxPoint x="496" y="279" as="sourcePoint" />
            <mxPoint x="310" y="279" as="targetPoint" />
          </mxGeometry>
        </mxCell>
        <mxCell id="E0nplpM9ZqIQ3wavxiov-10" value="tx_axis_tvalid" style="text;strokeColor=none;align=center;fillColor=none;html=1;verticalAlign=middle;whiteSpace=wrap;rounded=0;" parent="1" vertex="1">
          <mxGeometry x="380" y="250" width="60" height="30" as="geometry" />
        </mxCell>
        <mxCell id="E0nplpM9ZqIQ3wavxiov-11" value="eth_axis_rx_inst" style="rounded=0;whiteSpace=wrap;html=1;" parent="1" vertex="1">
          <mxGeometry x="500" y="370" width="160" height="120" as="geometry" />
        </mxCell>
        <mxCell id="E0nplpM9ZqIQ3wavxiov-12" value="" style="endArrow=classic;html=1;rounded=0;entryX=-0.025;entryY=0.295;entryDx=0;entryDy=0;entryPerimeter=0;" parent="1" edge="1">
          <mxGeometry width="50" height="50" relative="1" as="geometry">
            <mxPoint x="310" y="429" as="sourcePoint" />
            <mxPoint x="496" y="429" as="targetPoint" />
          </mxGeometry>
        </mxCell>
        <mxCell id="E0nplpM9ZqIQ3wavxiov-13" value="rx_axis_tvalid" style="text;strokeColor=none;align=center;fillColor=none;html=1;verticalAlign=middle;whiteSpace=wrap;rounded=0;" parent="1" vertex="1">
          <mxGeometry x="380" y="400" width="60" height="30" as="geometry" />
        </mxCell>
        <mxCell id="E0nplpM9ZqIQ3wavxiov-14" value="" style="endArrow=classic;html=1;rounded=0;entryX=-0.025;entryY=0.295;entryDx=0;entryDy=0;entryPerimeter=0;" parent="1" edge="1">
          <mxGeometry width="50" height="50" relative="1" as="geometry">
            <mxPoint x="846" y="313" as="sourcePoint" />
            <mxPoint x="660" y="313" as="targetPoint" />
          </mxGeometry>
        </mxCell>
        <mxCell id="E0nplpM9ZqIQ3wavxiov-15" value="tx_eth_payload_axis_valid" style="text;strokeColor=none;align=center;fillColor=none;html=1;verticalAlign=middle;whiteSpace=wrap;rounded=0;" parent="1" vertex="1">
          <mxGeometry x="730" y="284" width="60" height="30" as="geometry" />
        </mxCell>
        <mxCell id="E0nplpM9ZqIQ3wavxiov-34" value="" style="edgeStyle=orthogonalEdgeStyle;rounded=0;orthogonalLoop=1;jettySize=auto;html=1;entryX=0;entryY=0.5;entryDx=0;entryDy=0;exitX=1;exitY=0.5;exitDx=0;exitDy=0;" parent="1" source="E0nplpM9ZqIQ3wavxiov-16" target="E0nplpM9ZqIQ3wavxiov-23" edge="1">
          <mxGeometry relative="1" as="geometry">
            <mxPoint x="1090" y="440" as="targetPoint" />
            <Array as="points">
              <mxPoint x="1160" y="440" />
              <mxPoint x="1160" y="730" />
              <mxPoint x="330" y="730" />
              <mxPoint x="330" y="600" />
            </Array>
          </mxGeometry>
        </mxCell>
        <mxCell id="E0nplpM9ZqIQ3wavxiov-16" value="udp_complete_inst" style="rounded=0;whiteSpace=wrap;html=1;" parent="1" vertex="1">
          <mxGeometry x="850" y="220" width="160" height="440" as="geometry" />
        </mxCell>
        <mxCell id="E0nplpM9ZqIQ3wavxiov-17" value="" style="endArrow=classic;html=1;rounded=0;entryX=-0.025;entryY=0.295;entryDx=0;entryDy=0;entryPerimeter=0;" parent="1" edge="1">
          <mxGeometry width="50" height="50" relative="1" as="geometry">
            <mxPoint x="846" y="259" as="sourcePoint" />
            <mxPoint x="660" y="259" as="targetPoint" />
          </mxGeometry>
        </mxCell>
        <mxCell id="E0nplpM9ZqIQ3wavxiov-18" value="tx_eth_hdr_valid" style="text;strokeColor=none;align=center;fillColor=none;html=1;verticalAlign=middle;whiteSpace=wrap;rounded=0;" parent="1" vertex="1">
          <mxGeometry x="730" y="230" width="60" height="30" as="geometry" />
        </mxCell>
        <mxCell id="E0nplpM9ZqIQ3wavxiov-19" value="" style="endArrow=classic;html=1;rounded=0;entryX=-0.025;entryY=0.295;entryDx=0;entryDy=0;entryPerimeter=0;" parent="1" edge="1">
          <mxGeometry width="50" height="50" relative="1" as="geometry">
            <mxPoint x="660" y="453" as="sourcePoint" />
            <mxPoint x="846" y="453" as="targetPoint" />
          </mxGeometry>
        </mxCell>
        <mxCell id="E0nplpM9ZqIQ3wavxiov-20" value="rx_eth_payload_axis_valid" style="text;strokeColor=none;align=center;fillColor=none;html=1;verticalAlign=middle;whiteSpace=wrap;rounded=0;" parent="1" vertex="1">
          <mxGeometry x="730" y="424" width="60" height="30" as="geometry" />
        </mxCell>
        <mxCell id="E0nplpM9ZqIQ3wavxiov-21" value="" style="endArrow=classic;html=1;rounded=0;entryX=-0.025;entryY=0.295;entryDx=0;entryDy=0;entryPerimeter=0;" parent="1" edge="1">
          <mxGeometry width="50" height="50" relative="1" as="geometry">
            <mxPoint x="660" y="399" as="sourcePoint" />
            <mxPoint x="846" y="399" as="targetPoint" />
          </mxGeometry>
        </mxCell>
        <mxCell id="E0nplpM9ZqIQ3wavxiov-22" value="rx_eth_hdr_valid" style="text;strokeColor=none;align=center;fillColor=none;html=1;verticalAlign=middle;whiteSpace=wrap;rounded=0;" parent="1" vertex="1">
          <mxGeometry x="730" y="370" width="60" height="30" as="geometry" />
        </mxCell>
        <mxCell id="E0nplpM9ZqIQ3wavxiov-23" value="udp_payload_fifo" style="rounded=0;whiteSpace=wrap;html=1;" parent="1" vertex="1">
          <mxGeometry x="500" y="540" width="160" height="120" as="geometry" />
        </mxCell>
        <mxCell id="E0nplpM9ZqIQ3wavxiov-26" value="" style="endArrow=classic;html=1;rounded=0;entryX=-0.025;entryY=0.295;entryDx=0;entryDy=0;entryPerimeter=0;" parent="1" edge="1">
          <mxGeometry width="50" height="50" relative="1" as="geometry">
            <mxPoint x="660" y="573" as="sourcePoint" />
            <mxPoint x="846" y="573" as="targetPoint" />
          </mxGeometry>
        </mxCell>
        <mxCell id="E0nplpM9ZqIQ3wavxiov-27" value="tx_udp_payload_axis_tvalid" style="text;strokeColor=none;align=center;fillColor=none;html=1;verticalAlign=middle;whiteSpace=wrap;rounded=0;" parent="1" vertex="1">
          <mxGeometry x="730" y="544" width="60" height="30" as="geometry" />
        </mxCell>
        <mxCell id="E0nplpM9ZqIQ3wavxiov-31" value="rx_udp_hdr_valid" style="text;strokeColor=none;align=center;fillColor=none;html=1;verticalAlign=middle;whiteSpace=wrap;rounded=0;" parent="1" vertex="1">
          <mxGeometry x="1040" y="570" width="60" height="30" as="geometry" />
        </mxCell>
        <mxCell id="E0nplpM9ZqIQ3wavxiov-32" value="tx_udp_hdr_valid" style="text;strokeColor=none;align=center;fillColor=none;html=1;verticalAlign=middle;whiteSpace=wrap;rounded=0;" parent="1" vertex="1">
          <mxGeometry x="760" y="600" width="60" height="30" as="geometry" />
        </mxCell>
        <mxCell id="E0nplpM9ZqIQ3wavxiov-35" value="rx_udp_payload_axis_tvalid" style="text;strokeColor=none;align=center;fillColor=none;html=1;verticalAlign=middle;whiteSpace=wrap;rounded=0;" parent="1" vertex="1">
          <mxGeometry x="1070" y="410" width="60" height="30" as="geometry" />
        </mxCell>
        <mxCell id="E0nplpM9ZqIQ3wavxiov-36" value="rx_fifo_udp_payload_axis_tvalid" style="text;strokeColor=none;align=center;fillColor=none;html=1;verticalAlign=middle;whiteSpace=wrap;rounded=0;" parent="1" vertex="1">
          <mxGeometry x="360" y="570" width="60" height="30" as="geometry" />
        </mxCell>
        <mxCell id="N1IPieYBNQP0ZMHEeylF-5" value="" style="edgeStyle=orthogonalEdgeStyle;rounded=0;orthogonalLoop=1;jettySize=auto;html=1;entryX=-0.031;entryY=0.92;entryDx=0;entryDy=0;entryPerimeter=0;" edge="1" parent="1" target="E0nplpM9ZqIQ3wavxiov-16">
          <mxGeometry relative="1" as="geometry">
            <mxPoint x="490" y="720" as="targetPoint" />
            <Array as="points">
              <mxPoint x="1120" y="590" />
              <mxPoint x="1120" y="690" />
              <mxPoint x="730" y="690" />
              <mxPoint x="730" y="625" />
            </Array>
            <mxPoint x="1010" y="590" as="sourcePoint" />
          </mxGeometry>
        </mxCell>
      </root>
    </mxGraphModel>
  </diagram>
  <diagram id="P1s6HsfZrU3XpNVCUSBY" name="add eth_mac_10g_fifo">
    <mxGraphModel dx="2261" dy="780" grid="1" gridSize="10" guides="1" tooltips="1" connect="1" arrows="1" fold="1" page="1" pageScale="1" pageWidth="827" pageHeight="1169" math="0" shadow="0">
      <root>
        <mxCell id="0" />
        <mxCell id="1" parent="0" />
        <mxCell id="THh-cyFSBiC59sENkMlL-1" value="eth_mac_10g_inst" style="rounded=0;whiteSpace=wrap;html=1;" vertex="1" parent="1">
          <mxGeometry x="150" y="220" width="160" height="300" as="geometry" />
        </mxCell>
        <mxCell id="THh-cyFSBiC59sENkMlL-2" value="" style="endArrow=classic;html=1;rounded=0;exitX=-0.012;exitY=0.203;exitDx=0;exitDy=0;exitPerimeter=0;" edge="1" parent="1">
          <mxGeometry width="50" height="50" relative="1" as="geometry">
            <mxPoint x="149.99999999999991" y="290.9000000000001" as="sourcePoint" />
            <mxPoint x="-390" y="289" as="targetPoint" />
          </mxGeometry>
        </mxCell>
        <mxCell id="THh-cyFSBiC59sENkMlL-3" value="xgmii_txc" style="text;strokeColor=none;align=center;fillColor=none;html=1;verticalAlign=middle;whiteSpace=wrap;rounded=0;" vertex="1" parent="1">
          <mxGeometry x="1.92" y="260" width="60" height="30" as="geometry" />
        </mxCell>
        <mxCell id="THh-cyFSBiC59sENkMlL-4" value="" style="endArrow=classic;html=1;rounded=0;" edge="1" parent="1">
          <mxGeometry width="50" height="50" relative="1" as="geometry">
            <mxPoint x="147.92" y="259" as="sourcePoint" />
            <mxPoint x="-390" y="259" as="targetPoint" />
          </mxGeometry>
        </mxCell>
        <mxCell id="THh-cyFSBiC59sENkMlL-5" value="xgmii_txd" style="text;strokeColor=none;align=center;fillColor=none;html=1;verticalAlign=middle;whiteSpace=wrap;rounded=0;" vertex="1" parent="1">
          <mxGeometry x="1.92" y="230" width="60" height="30" as="geometry" />
        </mxCell>
        <mxCell id="THh-cyFSBiC59sENkMlL-6" value="" style="endArrow=classic;html=1;rounded=0;entryX=-0.025;entryY=0.295;entryDx=0;entryDy=0;entryPerimeter=0;" edge="1" parent="1">
          <mxGeometry width="50" height="50" relative="1" as="geometry">
            <mxPoint x="-390" y="349" as="sourcePoint" />
            <mxPoint x="147.92" y="349" as="targetPoint" />
          </mxGeometry>
        </mxCell>
        <mxCell id="THh-cyFSBiC59sENkMlL-7" value="xgmii_rxc" style="text;strokeColor=none;align=center;fillColor=none;html=1;verticalAlign=middle;whiteSpace=wrap;rounded=0;" vertex="1" parent="1">
          <mxGeometry x="1.92" y="320" width="60" height="30" as="geometry" />
        </mxCell>
        <mxCell id="THh-cyFSBiC59sENkMlL-8" value="" style="endArrow=classic;html=1;rounded=0;entryX=-0.025;entryY=0.295;entryDx=0;entryDy=0;entryPerimeter=0;" edge="1" parent="1">
          <mxGeometry width="50" height="50" relative="1" as="geometry">
            <mxPoint x="-390" y="319" as="sourcePoint" />
            <mxPoint x="147.92" y="319" as="targetPoint" />
          </mxGeometry>
        </mxCell>
        <mxCell id="THh-cyFSBiC59sENkMlL-9" value="xgmii_rxd" style="text;strokeColor=none;align=center;fillColor=none;html=1;verticalAlign=middle;whiteSpace=wrap;rounded=0;" vertex="1" parent="1">
          <mxGeometry x="1.92" y="290" width="60" height="30" as="geometry" />
        </mxCell>
        <mxCell id="THh-cyFSBiC59sENkMlL-11" value="tx_fifo_axis_tvalid" style="text;strokeColor=none;align=center;fillColor=none;html=1;verticalAlign=middle;whiteSpace=wrap;rounded=0;" vertex="1" parent="1">
          <mxGeometry x="1.92" y="420" width="60" height="30" as="geometry" />
        </mxCell>
        <mxCell id="THh-cyFSBiC59sENkMlL-12" value="" style="endArrow=classic;html=1;rounded=0;entryX=-0.025;entryY=0.295;entryDx=0;entryDy=0;entryPerimeter=0;" edge="1" parent="1">
          <mxGeometry width="50" height="50" relative="1" as="geometry">
            <mxPoint x="-38.08" y="449" as="sourcePoint" />
            <mxPoint x="147.92" y="449" as="targetPoint" />
          </mxGeometry>
        </mxCell>
        <mxCell id="THh-cyFSBiC59sENkMlL-13" value="tx_fifo" style="rounded=0;whiteSpace=wrap;html=1;" vertex="1" parent="1">
          <mxGeometry x="-200" y="380" width="160" height="140" as="geometry" />
        </mxCell>
        <mxCell id="THh-cyFSBiC59sENkMlL-14" value="" style="endArrow=classic;html=1;rounded=0;entryX=-0.025;entryY=0.295;entryDx=0;entryDy=0;entryPerimeter=0;" edge="1" parent="1">
          <mxGeometry width="50" height="50" relative="1" as="geometry">
            <mxPoint x="-386" y="449.5" as="sourcePoint" />
            <mxPoint x="-200.00000000000003" y="449.5" as="targetPoint" />
          </mxGeometry>
        </mxCell>
        <mxCell id="THh-cyFSBiC59sENkMlL-15" value="tx_axis_tvalid" style="text;strokeColor=none;align=center;fillColor=none;html=1;verticalAlign=middle;whiteSpace=wrap;rounded=0;" vertex="1" parent="1">
          <mxGeometry x="-330" y="420" width="60" height="30" as="geometry" />
        </mxCell>
        <mxCell id="THh-cyFSBiC59sENkMlL-16" value="rx_fifo" style="rounded=0;whiteSpace=wrap;html=1;" vertex="1" parent="1">
          <mxGeometry x="496" y="380" width="160" height="140" as="geometry" />
        </mxCell>
        <mxCell id="THh-cyFSBiC59sENkMlL-17" value="" style="endArrow=classic;html=1;rounded=0;entryX=-0.025;entryY=0.295;entryDx=0;entryDy=0;entryPerimeter=0;" edge="1" parent="1">
          <mxGeometry width="50" height="50" relative="1" as="geometry">
            <mxPoint x="310" y="449.5" as="sourcePoint" />
            <mxPoint x="496" y="449.5" as="targetPoint" />
          </mxGeometry>
        </mxCell>
        <mxCell id="THh-cyFSBiC59sENkMlL-18" value="rx_fifo_axis_tvalid" style="text;strokeColor=none;align=center;fillColor=none;html=1;verticalAlign=middle;whiteSpace=wrap;rounded=0;" vertex="1" parent="1">
          <mxGeometry x="366" y="420" width="60" height="30" as="geometry" />
        </mxCell>
        <mxCell id="THh-cyFSBiC59sENkMlL-19" value="rx_axis_tvalid" style="text;strokeColor=none;align=center;fillColor=none;html=1;verticalAlign=middle;whiteSpace=wrap;rounded=0;" vertex="1" parent="1">
          <mxGeometry x="716" y="420" width="60" height="30" as="geometry" />
        </mxCell>
        <mxCell id="THh-cyFSBiC59sENkMlL-20" value="" style="endArrow=classic;html=1;rounded=0;entryX=-0.025;entryY=0.295;entryDx=0;entryDy=0;entryPerimeter=0;" edge="1" parent="1">
          <mxGeometry width="50" height="50" relative="1" as="geometry">
            <mxPoint x="660" y="449.5" as="sourcePoint" />
            <mxPoint x="846" y="449.5" as="targetPoint" />
          </mxGeometry>
        </mxCell>
      </root>
    </mxGraphModel>
  </diagram>
</mxfile>
